<svg width="28" height="28" viewBox="0 0 28 28" xmlns="http://www.w3.org/2000/svg">
<path d="M16.3411 22.1646C16.6114 22.1651 16.8734 22.0704 17.0815 21.8969C17.1986 21.7991 17.2955 21.6791 17.3664 21.5437C17.4374 21.4082 17.4811 21.2601 17.4951 21.1076C17.5091 20.9551 17.493 20.8014 17.4479 20.6552C17.4027 20.5089 17.3293 20.3731 17.2319 20.2555L12.0491 14.016L17.0468 7.76487C17.1429 7.6458 17.2146 7.50879 17.2579 7.36172C17.3012 7.21465 17.3152 7.06042 17.2991 6.90789C17.283 6.75536 17.2371 6.60754 17.164 6.47293C17.0909 6.33832 16.9921 6.21957 16.8733 6.12351C16.7536 6.01753 16.6134 5.9376 16.4615 5.88872C16.3097 5.83984 16.1494 5.82307 15.9908 5.83947C15.8322 5.85587 15.6787 5.90507 15.5399 5.984C15.4011 6.06293 15.28 6.16987 15.1842 6.29812L9.59651 13.2826C9.42635 13.4909 9.33333 13.7522 9.33333 14.0218C9.33333 14.2915 9.42635 14.5527 9.59651 14.761L15.3809 21.7455C15.4969 21.8864 15.6444 21.9978 15.8112 22.0706C15.978 22.1434 16.1596 22.1756 16.3411 22.1646Z" />
</svg>
